<svg width="960" height="250" version="1.1" xmlns="http://www.w3.org/2000/svg" desc="Created with imagetracer.js version 1.2.6" ><path fill="rgb(104,29,30)" stroke="rgb(104,29,30)" stroke-width="1" opacity="0.39215686274509803" d="M 162.5 34 L 167 37.5 L 159 73.5 L 157 76.5 L 157 80.5 L 147 107.5 L 147 110.5 L 128 149.5 L 111 173 L 96 185 L 96 187 Q 92.3 185.5 93 188.5 L 78.5 198 L 68.5 202 L 55.5 205 L 42.5 206 L 40.5 205 L 37.5 206 L 31 203.5 Q 29.3 198.7 33.5 200 L 36.5 201 L 57.5 194 L 70.5 186 L 87.5 170 L 89 170 Q 105.4 150.6 117 125.5 L 128 97.5 L 136 64.5 L 138 60.5 Q 146.6 46.6 158.5 36 L 162.5 34 Z M 162 37 L 160 38 L 139 63 L 131 96 L 117 131 L 102 157 L 87 175 Q 84 174 85 177 L 83 177 L 83 179 L 66 192 Q 54 200 38 203 L 42 204 L 56 203 L 73 198 L 88 190 L 101 180 L 122 155 L 140 122 L 152 90 L 164 44 L 164 37 L 162 37 Z " /><path fill="rgb(104,29,30)" stroke="rgb(104,29,30)" stroke-width="1" opacity="0.39215686274509803" d="M 206.5 34 Q 210.5 33.5 211 36.5 L 212 39.5 L 208 51.5 L 208 53.5 L 208 58.5 L 205 65.5 L 205 69.5 L 201 83.5 L 187 121.5 L 176 143.5 L 164 160.5 L 164 162.5 L 146.5 181 L 143 182 L 141.5 185 Q 139.3 184.3 140 186.5 L 135.5 190 L 133 190 Q 134.1 192.7 131.5 192 L 119.5 199 L 103.5 204 L 101.5 204 L 95.5 205 L 93.5 205 Q 88 203.5 86.5 206 Q 85.3 203.7 80.5 205 L 76 202.5 L 77.5 201 L 82.5 201 L 95.5 196 Q 97 198.5 98.5 195 L 103 194 L 103.5 192 L 105.5 192 L 120 182.5 Q 119.3 180.3 121.5 181 L 126 178 Q 124.9 175.3 127.5 176 L 148 151.5 L 158 134.5 L 168 111.5 L 171 100.5 L 173 98.5 L 173 94.5 L 179 75.5 L 181 63.5 L 189 51 Q 191.7 52.1 191 49.5 L 195.5 44 Q 197.8 44.8 197 42.5 L 203 38 L 204.5 35 L 206.5 34 Z M 209 36 L 205 38 Q 193 49 184 63 L 175 98 L 164 126 Q 154 150 137 169 Q 126 181 112 191 Q 101 198 87 202 Q 81 200 82 204 L 102 203 L 116 199 Q 133 192 146 180 L 167 155 L 184 124 L 197 90 L 209 43 L 209 36 Z " /><path fill="rgb(104,29,30)" stroke="rgb(104,29,30)" stroke-width="1" opacity="0.39215686274509803" d="M 427.5 163 L 428 166.5 L 427 166.5 L 427.5 163 Z " /><path fill="rgb(104,29,30)" stroke="rgb(104,29,30)" stroke-width="1" opacity="0.39215686274509803" d="M 183.5 166 L 182.5 168 L 183.5 166 Z " /><path fill="rgb(104,29,30)" stroke="rgb(104,29,30)" stroke-width="1" opacity="0.39215686274509803" d="M 281.5 169 L 290 170.5 L 286.5 171 L 281.5 170 L 281.5 169 Z " /><path fill="rgb(104,29,30)" stroke="rgb(104,29,30)" stroke-width="1" opacity="0.39215686274509803" d="M 292.5 169 L 302 169.5 L 292.5 170 L 292.5 169 Z " /><path fill="rgb(104,29,30)" stroke="rgb(104,29,30)" stroke-width="1" opacity="0.39215686274509803" d="M 311.5 169 L 323 169.5 Q 312.2 168.7 305.5 172 L 303 170.5 L 304.5 170 L 307.5 171 L 311.5 169 Z " /><path fill="rgb(104,29,30)" stroke="rgb(104,29,30)" stroke-width="1" opacity="0.39215686274509803" d="M 367.5 169 L 376 169.5 L 367.5 170 L 367.5 169 Z " /><path fill="rgb(104,29,30)" stroke="rgb(104,29,30)" stroke-width="1" opacity="0.39215686274509803" d="M 491.5 169 L 494 169.5 L 491.5 170 L 491.5 169 Z " /><path fill="rgb(104,29,30)" stroke="rgb(104,29,30)" stroke-width="1" opacity="0.39215686274509803" d="M 847.5 169 L 850 169.5 L 847.5 170 L 847.5 169 Z " /><path fill="rgb(104,29,30)" stroke="rgb(104,29,30)" stroke-width="1" opacity="0.39215686274509803" d="M 893.5 169 L 898 172.5 L 894.5 170 L 893.5 169 Z " /><path fill="rgb(104,29,30)" stroke="rgb(104,29,30)" stroke-width="1" opacity="0.39215686274509803" d="M 324.5 170 L 328 172.5 L 325.5 171 L 324.5 170 Z " /><path fill="rgb(104,29,30)" stroke="rgb(104,29,30)" stroke-width="1" opacity="0.39215686274509803" d="M 485.5 170 L 487 170.5 L 482.5 173 L 483.5 171 L 485.5 170 Z " /><path fill="rgb(104,29,30)" stroke="rgb(104,29,30)" stroke-width="1" opacity="0.39215686274509803" d="M 179.5 171 L 174.5 177 L 179.5 171 Z " /><path fill="rgb(104,29,30)" stroke="rgb(104,29,30)" stroke-width="1" opacity="0.39215686274509803" d="M 438.5 171 L 440 171.5 L 437.5 173 L 438.5 171 Z " /><path fill="rgb(104,29,30)" stroke="rgb(104,29,30)" stroke-width="1" opacity="0.39215686274509803" d="M 800.5 171 L 801.5 173 L 800.5 171 Z " /><path fill="rgb(104,29,30)" stroke="rgb(104,29,30)" stroke-width="1" opacity="0.39215686274509803" d="M 292.5 172 Q 299.8 170.8 302 174.5 L 301.5 183 L 301 174 Q 298.6 172.3 292.5 173 L 287 175.5 L 286.5 185 L 286 174 L 292.5 172 Z " /><path fill="rgb(104,29,30)" stroke="rgb(104,29,30)" stroke-width="1" opacity="0.39215686274509803" d="M 313.5 172 Q 320.8 170.8 323 174.5 L 322.5 186 L 322 174 Q 319.6 172.3 313.5 173 L 313.5 172 Z " /><path fill="rgb(104,29,30)" stroke="rgb(104,29,30)" stroke-width="1" opacity="0.39215686274509803" d="M 364.5 172 L 377 172.5 L 364.5 173 L 364.5 172 Z " /><path fill="rgb(104,29,30)" stroke="rgb(104,29,30)" stroke-width="1" opacity="0.39215686274509803" d="M 491.5 172 L 494 172.5 L 491.5 173 L 491.5 172 Z " /><path fill="rgb(104,29,30)" stroke="rgb(104,29,30)" stroke-width="1" opacity="0.39215686274509803" d="M 625.5 172 L 626.5 174 L 625.5 172 Z " /><path fill="rgb(104,29,30)" stroke="rgb(104,29,30)" stroke-width="1" opacity="0.39215686274509803" d="M 635.5 172 L 639 172.5 L 635.5 173 L 635.5 172 Z " /><path fill="rgb(104,29,30)" stroke="rgb(104,29,30)" stroke-width="1" opacity="0.39215686274509803" d="M 843.5 172 L 849 172.5 L 843.5 173 L 843.5 172 Z " /><path fill="rgb(104,29,30)" stroke="rgb(104,29,30)" stroke-width="1" opacity="0.39215686274509803" d="M 309.5 173 L 312 173.5 L 308 175.5 L 307.5 186 L 307 174 L 309.5 173 Z " /><path fill="rgb(104,29,30)" stroke="rgb(104,29,30)" stroke-width="1" opacity="0.39215686274509803" d="M 441.5 173 L 443 173.5 L 440.5 175 L 441.5 173 Z " /><path fill="rgb(104,29,30)" stroke="rgb(104,29,30)" stroke-width="1" opacity="0.39215686274509803" d="M 501.5 173 L 502.5 175 L 501.5 173 Z " /><path fill="rgb(104,29,30)" stroke="rgb(104,29,30)" stroke-width="1" opacity="0.39215686274509803" d="M 841.5 173 L 840.5 175 L 841.5 173 Z " /><path fill="rgb(104,29,30)" stroke="rgb(104,29,30)" stroke-width="1" opacity="0.39215686274509803" d="M 898.5 174 L 901.5 178 L 898.5 174 Z " /><path fill="rgb(104,29,30)" stroke="rgb(104,29,30)" stroke-width="1" opacity="0.39215686274509803" d="M 328.5 175 L 329 178.5 L 328 178.5 L 328.5 175 Z " /><path fill="rgb(104,29,30)" stroke="rgb(104,29,30)" stroke-width="1" opacity="0.39215686274509803" d="M 427.5 175 L 429 177.5 L 427 178 L 427.5 175 Z " /><path fill="rgb(104,29,30)" stroke="rgb(104,29,30)" stroke-width="1" opacity="0.39215686274509803" d="M 893.5 175 L 895.5 178 L 893.5 175 Z " /><path fill="rgb(104,29,30)" stroke="rgb(104,29,30)" stroke-width="1" opacity="0.39215686274509803" d="M 915.5 175 L 913.5 178 L 915.5 175 Z " /><path fill="rgb(104,29,30)" stroke="rgb(104,29,30)" stroke-width="1" opacity="0.39215686274509803" d="M 368.5 176 L 373 176.5 L 368.5 177 L 368.5 176 Z " /><path fill="rgb(104,29,30)" stroke="rgb(104,29,30)" stroke-width="1" opacity="0.39215686274509803" d="M 387.5 176 L 388 184.5 L 387 184.5 L 387.5 176 Z " /><path fill="rgb(104,29,30)" stroke="rgb(104,29,30)" stroke-width="1" opacity="0.39215686274509803" d="M 436.5 176 L 435.5 178 L 436.5 176 Z " /><path fill="rgb(104,29,30)" stroke="rgb(104,29,30)" stroke-width="1" opacity="0.39215686274509803" d="M 845.5 176 L 848 176.5 L 845.5 177 L 845.5 176 Z " /><path fill="rgb(104,29,30)" stroke="rgb(104,29,30)" stroke-width="1" opacity="0.39215686274509803" d="M 368.5 179 L 372 179.5 L 368.5 180 L 368.5 179 Z " /><path fill="rgb(104,29,30)" stroke="rgb(104,29,30)" stroke-width="1" opacity="0.39215686274509803" d="M 896.5 179 L 897.5 181 L 896.5 179 Z " /><path fill="rgb(104,29,30)" stroke="rgb(104,29,30)" stroke-width="1" opacity="0.39215686274509803" d="M 328.5 180 L 329 184.5 L 328 184.5 L 328.5 180 Z " /><path fill="rgb(104,29,30)" stroke="rgb(104,29,30)" stroke-width="1" opacity="0.39215686274509803" d="M 910.5 181 L 909.5 183 L 910.5 181 Z " /><path fill="rgb(104,29,30)" stroke="rgb(104,29,30)" stroke-width="1" opacity="0.39215686274509803" d="M 427.5 182 L 428 185.5 L 427 185.5 L 427.5 182 Z " /><path fill="rgb(104,29,30)" stroke="rgb(104,29,30)" stroke-width="1" opacity="0.39215686274509803" d="M 837.5 182 L 840 182.5 L 837.5 183 L 837.5 182 Z " /><path fill="rgb(104,29,30)" stroke="rgb(104,29,30)" stroke-width="1" opacity="0.39215686274509803" d="M 906.5 186 L 904.5 189 L 906.5 186 Z " /><path fill="rgb(104,29,30)" stroke="rgb(104,29,30)" stroke-width="1" opacity="0.39215686274509803" d="M 898.5 189 L 897.5 191 L 898.5 189 Z " /><path fill="rgb(104,29,30)" stroke="rgb(104,29,30)" stroke-width="1" opacity="0.39215686274509803" d="M 152.5 192 L 151.5 194 L 152.5 192 Z " /><path fill="rgb(7,4,4)" stroke="rgb(7,4,4)" stroke-width="1" opacity="0.1411764705882353" d="M 252.5 35 Q 257.3 33.3 256 37.5 L 255 37.5 Q 255.8 35.3 253.5 36 L 242.5 45 L 250.5 36 L 252.5 35 Z " /><path fill="rgb(7,4,4)" stroke="rgb(7,4,4)" stroke-width="1" opacity="0.1411764705882353" d="M 255.5 41 L 256 44.5 L 254.5 49 L 254 45.5 L 255.5 41 Z " /><path fill="rgb(7,4,4)" stroke="rgb(7,4,4)" stroke-width="1" opacity="0.1411764705882353" d="M 241.5 46 L 238 50.5 L 233 59 L 231 58.5 L 241.5 46 Z " /><path fill="rgb(7,4,4)" stroke="rgb(7,4,4)" stroke-width="1" opacity="0.1411764705882353" d="M 253.5 51 L 254 53.5 L 252.5 58 L 252 54.5 L 253.5 51 Z " /><path fill="rgb(7,4,4)" stroke="rgb(7,4,4)" stroke-width="1" opacity="0.1411764705882353" d="M 251.5 59 L 252 62.5 L 241.5 95 L 241 93.5 L 246 80.5 L 251.5 59 Z " /><path fill="rgb(7,4,4)" stroke="rgb(7,4,4)" stroke-width="1" opacity="0.1411764705882353" d="M 230.5 60 L 230 61.5 L 226.5 73 L 226 70.5 L 230.5 60 Z " /><path fill="rgb(7,4,4)" stroke="rgb(7,4,4)" stroke-width="1" opacity="0.1411764705882353" d="M 300.5 70 L 306 70.5 L 300.5 71 L 300.5 70 Z " /><path fill="rgb(7,4,4)" stroke="rgb(7,4,4)" stroke-width="1" opacity="0.1411764705882353" d="M 350.5 70 L 356 70.5 L 350.5 71 L 350.5 70 Z " /><path fill="rgb(7,4,4)" stroke="rgb(7,4,4)" stroke-width="1" opacity="0.1411764705882353" d="M 423.5 70 L 428 70.5 L 423.5 71 L 423.5 70 Z " /><path fill="rgb(7,4,4)" stroke="rgb(7,4,4)" stroke-width="1" opacity="0.1411764705882353" d="M 473.5 70 Q 489.8 70.8 497 80.5 L 499 85.5 L 498 85.5 L 495 79 L 484.5 73 L 478.5 71 L 473.5 71 L 473.5 70 Z " /><path fill="rgb(7,4,4)" stroke="rgb(7,4,4)" stroke-width="1" opacity="0.1411764705882353" d="M 518.5 70 L 521 70.5 L 518 72.5 L 517 74.5 L 517 125.5 Q 518.5 132.5 523.5 136 L 528 138.5 L 526.5 139 L 519 132.5 L 516 125.5 L 516 73.5 L 518.5 70 Z " /><path fill="rgb(7,4,4)" stroke="rgb(7,4,4)" stroke-width="1" opacity="0.1411764705882353" d="M 529.5 70 L 532 70.5 L 529.5 71 L 529.5 70 Z " /><path fill="rgb(7,4,4)" stroke="rgb(7,4,4)" stroke-width="1" opacity="0.1411764705882353" d="M 605.5 70 L 607 70.5 L 603.5 73 L 605.5 70 Z " /><path fill="rgb(7,4,4)" stroke="rgb(7,4,4)" stroke-width="1" opacity="0.1411764705882353" d="M 616.5 70 L 619 71.5 L 620 75.5 L 619 75.5 L 616.5 70 Z " /><path fill="rgb(7,4,4)" stroke="rgb(7,4,4)" stroke-width="1" opacity="0.1411764705882353" d="M 663.5 70 L 667 70.5 L 663.5 71 L 663.5 70 Z " /><path fill="rgb(7,4,4)" stroke="rgb(7,4,4)" stroke-width="1" opacity="0.1411764705882353" d="M 685.5 70 L 688 71 L 689 75.5 L 688 75.5 L 685.5 70 Z " /><path fill="rgb(7,4,4)" stroke="rgb(7,4,4)" stroke-width="1" opacity="0.1411764705882353" d="M 728.5 70 L 734 70.5 L 728.5 71 L 728.5 70 Z " /><path fill="rgb(7,4,4)" stroke="rgb(7,4,4)" stroke-width="1" opacity="0.1411764705882353" d="M 775.5 70 L 781 70.5 L 775.5 71 L 775.5 70 Z " /><path fill="rgb(7,4,4)" stroke="rgb(7,4,4)" stroke-width="1" opacity="0.1411764705882353" d="M 845.5 70 L 850 70.5 L 845.5 71 L 845.5 70 Z " /><path fill="rgb(7,4,4)" stroke="rgb(7,4,4)" stroke-width="1" opacity="0.1411764705882353" d="M 894.5 70 L 901 70.5 L 894.5 71 L 894.5 70 Z " /><path fill="rgb(7,4,4)" stroke="rgb(7,4,4)" stroke-width="1" opacity="0.1411764705882353" d="M 295.5 71 L 299 71.5 L 295.5 72 L 295.5 71 Z " /><path fill="rgb(7,4,4)" stroke="rgb(7,4,4)" stroke-width="1" opacity="0.1411764705882353" d="M 360.5 71 Q 371.3 72.7 376 80.5 L 377 82.5 L 375 81.5 L 371.5 77 L 360.5 72 L 360.5 71 Z " /><path fill="rgb(7,4,4)" stroke="rgb(7,4,4)" stroke-width="1" opacity="0.1411764705882353" d="M 418.5 71 L 422 71.5 L 418.5 72 L 418.5 71 Z " /><path fill="rgb(7,4,4)" stroke="rgb(7,4,4)" stroke-width="1" opacity="0.1411764705882353" d="M 658.5 71 L 662 71.5 Q 649 73.5 643 82.5 L 640 92.5 L 640 138.5 L 641 142 Q 644.6 144.3 653.5 143 L 656 140.5 L 656 91.5 L 660.5 86 L 663.5 85 L 663.5 86 L 658 89.5 L 657 92.5 L 657 141.5 L 655.5 143 L 653.5 144 L 642.5 144 L 639 139.5 L 639 91.5 L 640 86.5 L 645 78 L 650.5 74 L 658.5 71 Z " /><path fill="rgb(7,4,4)" stroke="rgb(7,4,4)" stroke-width="1" opacity="0.1411764705882353" d="M 723.5 71 L 727 71.5 L 723.5 72 L 723.5 71 Z " /><path fill="rgb(7,4,4)" stroke="rgb(7,4,4)" stroke-width="1" opacity="0.1411764705882353" d="M 782.5 71 Q 795.4 72.6 801 81.5 L 804 90.5 L 804 123.5 Q 802 133.5 794.5 138 L 789.5 141 L 778.5 144 L 728.5 144 L 718 140.5 L 719.5 140 L 729.5 143 L 777.5 143 L 786.5 141 Q 794.5 138.5 799 132.5 L 802 126.5 L 802 92.5 L 803 91.5 L 800 81.5 L 794.5 76 Q 790 72.5 782.5 72 L 782.5 71 Z " /><path fill="rgb(7,4,4)" stroke="rgb(7,4,4)" stroke-width="1" opacity="0.1411764705882353" d="M 840.5 71 L 844 71.5 L 840.5 72 L 840.5 71 Z " /><path fill="rgb(7,4,4)" stroke="rgb(7,4,4)" stroke-width="1" opacity="0.1411764705882353" d="M 902.5 71 L 911.5 73 L 921 80.5 L 924 88.5 L 924 138.5 L 920.5 144 Q 910.9 145.4 907 143 L 905 138.5 L 905 88.5 L 903 86.5 L 906 88.5 L 907 91.5 L 906 92.5 L 906 135.5 L 907 140.5 L 909.5 143 L 919.5 143 L 922 140.5 L 922 84.5 L 916.5 77 Q 911.3 72.7 902.5 72 L 902.5 71 Z " /><path fill="rgb(7,4,4)" stroke="rgb(7,4,4)" stroke-width="1" opacity="0.1411764705882353" d="M 291.5 72 L 294 72.5 Q 285.3 74.3 281 80.5 L 278 87.5 L 278 139.5 L 279 142 Q 282.6 144.3 291.5 143 L 294 140.5 L 294 89.5 L 295 87 L 297.5 86 L 296 88.5 L 295 90.5 L 295 140.5 L 291.5 144 L 280.5 144 L 278 141.5 L 277 139.5 L 277 87.5 Q 278.6 78.6 285.5 75 L 291.5 72 Z " /><path fill="rgb(7,4,4)" stroke="rgb(7,4,4)" stroke-width="1" opacity="0.1411764705882353" d="M 415.5 72 L 417 72.5 L 412.5 74 L 412.5 73 L 415.5 72 Z " /><path fill="rgb(7,4,4)" stroke="rgb(7,4,4)" stroke-width="1" opacity="0.1411764705882353" d="M 532.5 72 L 534 73.5 L 534 122.5 L 537.5 126 L 549.5 129 L 586.5 129 L 599.5 126 L 602 123.5 L 602.5 75 L 603 123.5 L 597.5 128 L 588.5 130 L 548.5 130 L 536.5 127 L 534 124.5 L 533 122.5 L 533 73.5 L 532.5 72 Z " /><path fill="rgb(7,4,4)" stroke="rgb(7,4,4)" stroke-width="1" opacity="0.1411764705882353" d="M 720.5 72 L 722 72.5 L 713.5 76 L 705 84.5 L 703.5 88 L 703 86.5 L 709.5 78 L 720.5 72 Z " /><path fill="rgb(7,4,4)" stroke="rgb(7,4,4)" stroke-width="1" opacity="0.1411764705882353" d="M 836.5 72 L 839 72.5 Q 829.6 74.6 825 81.5 L 823.5 85 L 823 83.5 L 828.5 76 L 836.5 72 Z " /><path fill="rgb(7,4,4)" stroke="rgb(7,4,4)" stroke-width="1" opacity="0.1411764705882353" d="M 410.5 74 L 409.5 76 L 401 82.5 L 398 88.5 L 398 124.5 Q 400.5 132.5 406.5 137 L 412.5 140 L 424.5 143 L 450.5 143 L 453 141.5 L 450.5 144 L 423.5 144 L 411.5 141 L 400 131.5 L 397 125.5 L 397 88.5 Q 399.4 79.9 406.5 76 L 410.5 74 Z " /><path fill="rgb(7,4,4)" stroke="rgb(7,4,4)" stroke-width="1" opacity="0.1411764705882353" d="M 688.5 77 L 689 80.5 L 685 83.5 Q 688.6 82.1 688.5 77 Z " /><path fill="rgb(7,4,4)" stroke="rgb(7,4,4)" stroke-width="1" opacity="0.1411764705882353" d="M 223.5 83 L 224 85.5 L 222.5 88 L 222 86.5 L 223.5 83 Z " /><path fill="rgb(7,4,4)" stroke="rgb(7,4,4)" stroke-width="1" opacity="0.1411764705882353" d="M 303.5 84 L 315 84.5 L 303.5 85 L 303.5 84 Z " /><path fill="rgb(7,4,4)" stroke="rgb(7,4,4)" stroke-width="1" opacity="0.1411764705882353" d="M 341.5 84 L 353 84.5 L 341.5 85 L 341.5 84 Z " /><path fill="rgb(7,4,4)" stroke="rgb(7,4,4)" stroke-width="1" opacity="0.1411764705882353" d="M 428.5 84 L 438 84.5 L 428.5 85 L 428.5 84 Z " /><path fill="rgb(7,4,4)" stroke="rgb(7,4,4)" stroke-width="1" opacity="0.1411764705882353" d="M 461.5 84 L 469 84.5 L 461.5 85 L 461.5 84 Z " /><path fill="rgb(7,4,4)" stroke="rgb(7,4,4)" stroke-width="1" opacity="0.1411764705882353" d="M 666.5 84 L 675 84.5 L 666.5 85 L 666.5 84 Z " /><path fill="rgb(7,4,4)" stroke="rgb(7,4,4)" stroke-width="1" opacity="0.1411764705882353" d="M 732.5 84 L 741 84.5 L 732.5 85 L 732.5 84 Z " /><path fill="rgb(7,4,4)" stroke="rgb(7,4,4)" stroke-width="1" opacity="0.1411764705882353" d="M 767.5 84 L 774 84.5 L 767.5 85 L 767.5 84 Z " /><path fill="rgb(7,4,4)" stroke="rgb(7,4,4)" stroke-width="1" opacity="0.1411764705882353" d="M 848.5 84 L 860 84.5 L 848.5 85 L 848.5 84 Z " /><path fill="rgb(7,4,4)" stroke="rgb(7,4,4)" stroke-width="1" opacity="0.1411764705882353" d="M 886.5 84 L 898 84.5 L 886.5 85 L 886.5 84 Z " /><path fill="rgb(7,4,4)" stroke="rgb(7,4,4)" stroke-width="1" opacity="0.1411764705882353" d="M 423.5 85 L 426 85.5 L 423.5 86 L 423.5 85 Z " /><path fill="rgb(7,4,4)" stroke="rgb(7,4,4)" stroke-width="1" opacity="0.1411764705882353" d="M 780.5 86 L 786 89.5 L 787 94.5 L 787 119.5 L 785 125 L 777.5 129 Q 772.7 127.8 771.5 130 L 734.5 130 L 725.5 128 L 719 122.5 L 719.5 121 L 723.5 126 L 734.5 129 L 770.5 129 L 779.5 127 L 785 122.5 L 785 90.5 L 784 88 Q 779.8 88 780.5 86 Z " /><path fill="rgb(7,4,4)" stroke="rgb(7,4,4)" stroke-width="1" opacity="0.1411764705882353" d="M 822.5 86 L 823 139.5 L 822 139.5 L 822.5 86 Z " /><path fill="rgb(7,4,4)" stroke="rgb(7,4,4)" stroke-width="1" opacity="0.1411764705882353" d="M 841.5 86 L 840.5 88 L 841.5 86 Z " /><path fill="rgb(7,4,4)" stroke="rgb(7,4,4)" stroke-width="1" opacity="0.1411764705882353" d="M 378.5 87 L 379 139.5 L 375.5 144 L 364.5 144 L 362 141.5 L 364.5 143 L 375.5 143 L 377 141.5 L 378 139.5 L 378.5 87 Z " /><path fill="rgb(7,4,4)" stroke="rgb(7,4,4)" stroke-width="1" opacity="0.1411764705882353" d="M 723.5 87 L 720.5 91 L 723.5 87 Z " /><path fill="rgb(7,4,4)" stroke="rgb(7,4,4)" stroke-width="1" opacity="0.1411764705882353" d="M 416.5 88 L 416 89.5 L 415 91.5 L 415 101 L 483 101.5 L 414 102 L 414 90.5 L 416.5 88 Z " /><path fill="rgb(7,4,4)" stroke="rgb(7,4,4)" stroke-width="1" opacity="0.1411764705882353" d="M 480.5 88 L 483 91.5 L 482 91.5 L 480.5 88 Z " /><path fill="rgb(7,4,4)" stroke="rgb(7,4,4)" stroke-width="1" opacity="0.1411764705882353" d="M 499.5 88 L 500 110.5 L 499 110.5 L 499.5 88 Z " /><path fill="rgb(7,4,4)" stroke="rgb(7,4,4)" stroke-width="1" opacity="0.1411764705882353" d="M 702.5 89 L 703 125.5 Q 705.3 132.3 710.5 136 L 713 137.5 L 711.5 137 L 705 131.5 L 702 125.5 L 702.5 89 Z " /><path fill="rgb(7,4,4)" stroke="rgb(7,4,4)" stroke-width="1" opacity="0.1411764705882353" d="M 361.5 90 L 362 139.5 L 361 139.5 L 361.5 90 Z " /><path fill="rgb(7,4,4)" stroke="rgb(7,4,4)" stroke-width="1" opacity="0.1411764705882353" d="M 217.5 102 L 218 104.5 L 217 104.5 L 217.5 102 Z " /><path fill="rgb(7,4,4)" stroke="rgb(7,4,4)" stroke-width="1" opacity="0.1411764705882353" d="M 236.5 108 L 237 109.5 L 235.5 112 L 235 110.5 L 236.5 108 Z " /><path fill="rgb(7,4,4)" stroke="rgb(7,4,4)" stroke-width="1" opacity="0.1411764705882353" d="M 214.5 111 L 215 112.5 L 202 140.5 L 196.5 148 L 198 145.5 L 214.5 111 Z " /><path fill="rgb(7,4,4)" stroke="rgb(7,4,4)" stroke-width="1" opacity="0.1411764705882353" d="M 619.5 112 L 620 119.5 L 619 119.5 L 619.5 112 Z " /><path fill="rgb(7,4,4)" stroke="rgb(7,4,4)" stroke-width="1" opacity="0.1411764705882353" d="M 234.5 113 L 235 114.5 L 233.5 117 L 233 115.5 L 234.5 113 Z " /><path fill="rgb(7,4,4)" stroke="rgb(7,4,4)" stroke-width="1" opacity="0.1411764705882353" d="M 496.5 114 L 498 114.5 L 495.5 116 L 415 116.5 Q 415.9 123.1 420.5 126 L 432.5 129 L 434.5 129 L 450.5 129 L 453 131.5 L 451.5 131 L 449.5 130 L 429.5 130 L 424.5 129 L 416 122.5 L 414 115 L 495.5 115 L 496.5 114 Z " /><path fill="rgb(7,4,4)" stroke="rgb(7,4,4)" stroke-width="1" opacity="0.1411764705882353" d="M 232.5 118 L 233 119.5 Q 225.7 138.2 214.5 153 L 215 151.5 L 232.5 118 Z " /><path fill="rgb(7,4,4)" stroke="rgb(7,4,4)" stroke-width="1" opacity="0.1411764705882353" d="M 619.5 122 L 620 126.5 L 618.5 129 L 618 127.5 L 619.5 122 Z " /><path fill="rgb(7,4,4)" stroke="rgb(7,4,4)" stroke-width="1" opacity="0.1411764705882353" d="M 617.5 130 L 617 131.5 L 615.5 134 Q 607.3 141.8 593.5 144 L 542.5 144 L 529 141 L 529.5 139 L 543.5 143 L 591.5 143 L 604.5 140 Q 612.9 136.9 617.5 130 Z " /><path fill="rgb(7,4,4)" stroke="rgb(7,4,4)" stroke-width="1" opacity="0.1411764705882353" d="M 453.5 133 L 454 139.5 L 453 139.5 L 453.5 133 Z " /><path fill="rgb(7,4,4)" stroke="rgb(7,4,4)" stroke-width="1" opacity="0.1411764705882353" d="M 714.5 138 L 717 139.5 L 715.5 140 L 714.5 138 Z " /><path fill="rgb(7,4,4)" stroke="rgb(7,4,4)" stroke-width="1" opacity="0.1411764705882353" d="M 838.5 140 L 839 141.5 L 836.5 144 L 825.5 144 L 823.5 141 L 825.5 143 L 835.5 143 L 838 142 L 838.5 140 Z " /><path fill="rgb(7,4,4)" stroke="rgb(7,4,4)" stroke-width="1" opacity="0.1411764705882353" d="M 194.5 151 L 194 152.5 L 192.5 155 L 193 153.5 L 194.5 151 Z " /><path fill="rgb(7,4,4)" stroke="rgb(7,4,4)" stroke-width="1" opacity="0.1411764705882353" d="M 213.5 154 L 212.5 156 L 213.5 154 Z " /><path fill="rgb(7,4,4)" stroke="rgb(7,4,4)" stroke-width="1" opacity="0.1411764705882353" d="M 191.5 156 L 189 159.5 L 185 166 L 182.5 167 L 186 162.5 L 191.5 156 Z " /><path fill="rgb(7,4,4)" stroke="rgb(7,4,4)" stroke-width="1" opacity="0.1411764705882353" d="M 211.5 157 L 210 159.5 Q 202.4 172.9 190.5 182 L 202 169.5 L 211.5 157 Z " /><path fill="rgb(7,4,4)" stroke="rgb(7,4,4)" stroke-width="1" opacity="0.1411764705882353" d="M 421.5 162 L 422 186 L 427 186.5 L 422.5 187 L 421 185.5 L 421.5 162 Z " /><path fill="rgb(7,4,4)" stroke="rgb(7,4,4)" stroke-width="1" opacity="0.1411764705882353" d="M 585.5 163 L 586 166 L 591 166 L 591 163.5 L 592 163.5 L 592 167 L 585 167 L 585.5 163 Z " /><path fill="rgb(7,4,4)" stroke="rgb(7,4,4)" stroke-width="1" opacity="0.1411764705882353" d="M 631.5 164 L 633 164 L 633 169 L 637.5 169 L 637.5 170 Q 633 171 632 168.5 L 631.5 164 Z " /><path fill="rgb(7,4,4)" stroke="rgb(7,4,4)" stroke-width="1" opacity="0.1411764705882353" d="M 181.5 168 L 166.5 184 L 160.5 188 L 162.5 185 L 167 183 Q 165.9 180.3 168.5 181 L 181.5 168 Z " /><path fill="rgb(7,4,4)" stroke="rgb(7,4,4)" stroke-width="1" opacity="0.1411764705882353" d="M 281.5 168 L 281 169.5 L 280.5 171 L 280 169.5 L 281.5 168 Z " /><path fill="rgb(7,4,4)" stroke="rgb(7,4,4)" stroke-width="1" opacity="0.1411764705882353" d="M 916.5 168 L 919.5 170 L 921 169.5 L 911.5 181 L 916 175.5 L 919 170.5 L 916.5 168 Z " /><path fill="rgb(7,4,4)" stroke="rgb(7,4,4)" stroke-width="1" opacity="0.1411764705882353" d="M 362 169 L 367 169.5 L 363 170 L 364 172.5 L 362 173 L 362 169 Z " /><path fill="rgb(7,4,4)" stroke="rgb(7,4,4)" stroke-width="1" opacity="0.1411764705882353" d="M 379.5 169 L 387 171 Q 386.3 174.1 389 173.5 L 389 186 L 382.5 187 Q 381 183.5 379.5 186 L 378 185.5 L 382 184 Q 380.6 187.7 386.5 186 L 388 184.5 L 388 176.5 L 388 174.5 L 384.5 171 L 379.5 170 L 379.5 169 Z " /><path fill="rgb(7,4,4)" stroke="rgb(7,4,4)" stroke-width="1" opacity="0.1411764705882353" d="M 441.5 169 L 443 169.5 L 439.5 171 L 439.5 170 L 441.5 169 Z " /><path fill="rgb(7,4,4)" stroke="rgb(7,4,4)" stroke-width="1" opacity="0.1411764705882353" d="M 447 169 Q 451.1 167.7 450 171 L 445.5 173 L 445 171 Q 448 172 447 169 Z " /><path fill="rgb(7,4,4)" stroke="rgb(7,4,4)" stroke-width="1" opacity="0.1411764705882353" d="M 487.5 169 L 491 169.5 L 487.5 170 L 487.5 169 Z " /><path fill="rgb(7,4,4)" stroke="rgb(7,4,4)" stroke-width="1" opacity="0.1411764705882353" d="M 496.5 169 Q 506.3 168.3 509 174.5 L 508.5 179 Q 508.9 172.6 504.5 171 L 496.5 170 L 496.5 169 Z " /><path fill="rgb(7,4,4)" stroke="rgb(7,4,4)" stroke-width="1" opacity="0.1411764705882353" d="M 585 169 L 592 169 L 592 185.5 Q 591 188 586.5 187 L 585 183.5 L 586 183.5 L 586 186 L 591 186 L 591 170.5 L 586 170 L 585.5 178 L 585 169 Z " /><path fill="rgb(7,4,4)" stroke="rgb(7,4,4)" stroke-width="1" opacity="0.1411764705882353" d="M 622 169 L 626 169.5 L 623 170 Q 621.9 172.7 624.5 172 L 624.5 173 Q 619.9 174.2 622 169 Z " /><path fill="rgb(7,4,4)" stroke="rgb(7,4,4)" stroke-width="1" opacity="0.1411764705882353" d="M 643.5 169 L 644 173 L 641 172.5 L 643 172 L 643.5 169 Z " /><path fill="rgb(7,4,4)" stroke="rgb(7,4,4)" stroke-width="1" opacity="0.1411764705882353" d="M 724.5 169 L 727 169.5 L 724.5 170 L 724.5 169 Z " /><path fill="rgb(7,4,4)" stroke="rgb(7,4,4)" stroke-width="1" opacity="0.1411764705882353" d="M 728.5 169 L 731 169.5 L 728.5 170 L 728.5 169 Z " /><path fill="rgb(7,4,4)" stroke="rgb(7,4,4)" stroke-width="1" opacity="0.1411764705882353" d="M 732.5 169 L 739 169.5 L 732.5 170 L 732.5 169 Z " /><path fill="rgb(7,4,4)" stroke="rgb(7,4,4)" stroke-width="1" opacity="0.1411764705882353" d="M 778.5 169 L 791 169.5 L 779.5 170 L 778 171.5 L 792 172.5 L 777 173 L 778.5 169 Z " /><path fill="rgb(7,4,4)" stroke="rgb(7,4,4)" stroke-width="1" opacity="0.1411764705882353" d="M 794.5 169 L 798 169.5 L 794.5 170 L 794.5 169 Z " /><path fill="rgb(7,4,4)" stroke="rgb(7,4,4)" stroke-width="1" opacity="0.1411764705882353" d="M 840.5 169 L 844 169.5 L 840.5 170 L 840.5 169 Z " /><path fill="rgb(7,4,4)" stroke="rgb(7,4,4)" stroke-width="1" opacity="0.1411764705882353" d="M 852.5 169 Q 857 168 858 170.5 L 856.5 170 Q 851.5 171 852.5 169 Z " /><path fill="rgb(7,4,4)" stroke="rgb(7,4,4)" stroke-width="1" opacity="0.1411764705882353" d="M 888.5 169 L 891 169.5 L 891 171.5 L 893 174.5 L 889 171.5 L 888.5 169 Z " /><path fill="rgb(7,4,4)" stroke="rgb(7,4,4)" stroke-width="1" opacity="0.1411764705882353" d="M 895.5 169 L 897.5 172 L 895.5 169 Z " /><path fill="rgb(7,4,4)" stroke="rgb(7,4,4)" stroke-width="1" opacity="0.1411764705882353" d="M 914.5 169 L 912 172.5 L 908 179 L 906 179 Q 907.1 181.7 904.5 181 L 902.5 178 L 904.5 180 L 909 175.5 L 914.5 169 Z " /><path fill="rgb(7,4,4)" stroke="rgb(7,4,4)" stroke-width="1" opacity="0.1411764705882353" d="M 326.5 170 L 327.5 172 L 326.5 170 Z " /><path fill="rgb(7,4,4)" stroke="rgb(7,4,4)" stroke-width="1" opacity="0.1411764705882353" d="M 740.5 170 L 745 173.5 L 744.5 175 L 742.5 172 L 740.5 170 Z " /><path fill="rgb(7,4,4)" stroke="rgb(7,4,4)" stroke-width="1" opacity="0.1411764705882353" d="M 799.5 170 L 804 173.5 L 804 185.5 L 802.5 186 L 798.5 187 L 795.5 185 Q 790.9 187.9 782.5 187 L 782.5 186 L 789.5 186 L 796.5 184 Q 797.3 186.8 801.5 186 L 803 184.5 L 803 174.5 L 800.5 171 L 799.5 170 Z " /><path fill="rgb(7,4,4)" stroke="rgb(7,4,4)" stroke-width="1" opacity="0.1411764705882353" d="M 837.5 170 L 839 170.5 L 835 173.5 L 836 176.5 L 834 175.5 Q 833.5 170.5 837.5 170 Z " /><path fill="rgb(7,4,4)" stroke="rgb(7,4,4)" stroke-width="1" opacity="0.1411764705882353" d="M 859.5 170 L 860 172.5 L 858 173.5 L 859.5 170 Z " /><path fill="rgb(7,4,4)" stroke="rgb(7,4,4)" stroke-width="1" opacity="0.1411764705882353" d="M 437.5 171 L 435.5 174 L 428.5 177 L 428.5 176 L 437.5 171 Z " /><path fill="rgb(7,4,4)" stroke="rgb(7,4,4)" stroke-width="1" opacity="0.1411764705882353" d="M 482.5 171 L 480 174.5 L 478.5 177 L 479 175.5 L 482.5 171 Z " /><path fill="rgb(7,4,4)" stroke="rgb(7,4,4)" stroke-width="1" opacity="0.1411764705882353" d="M 719.5 171 L 716 175.5 Q 715.2 180.8 718 182.5 L 716 181.5 L 715 175.5 L 719.5 171 Z " /><path fill="rgb(7,4,4)" stroke="rgb(7,4,4)" stroke-width="1" opacity="0.1411764705882353" d="M 280.5 172 L 281 186 L 286.5 185 L 285.5 187 Q 281 188 280 185.5 L 280.5 172 Z " /><path fill="rgb(7,4,4)" stroke="rgb(7,4,4)" stroke-width="1" opacity="0.1411764705882353" d="M 377.5 172 L 380 173.5 L 378.5 174 L 377.5 172 Z " /><path fill="rgb(7,4,4)" stroke="rgb(7,4,4)" stroke-width="1" opacity="0.1411764705882353" d="M 490.5 172 L 491 174 L 488 173.5 L 490.5 172 Z " /><path fill="rgb(7,4,4)" stroke="rgb(7,4,4)" stroke-width="1" opacity="0.1411764705882353" d="M 497.5 172 L 503 175.5 L 486 176 L 486.5 174 L 487.5 175 L 500.5 175 L 500.5 174 Q 496.7 174.5 497.5 172 Z " /><path fill="rgb(7,4,4)" stroke="rgb(7,4,4)" stroke-width="1" opacity="0.1411764705882353" d="M 727.5 172 L 729 172.5 L 724 174.5 L 737.5 175 L 737.5 174 L 735 173.5 L 737.5 173 L 740 174 L 739.5 176 L 723.5 176 L 722.5 174 L 727.5 172 Z " /><path fill="rgb(7,4,4)" stroke="rgb(7,4,4)" stroke-width="1" opacity="0.1411764705882353" d="M 632.5 173 L 633 180.5 L 635 182.5 L 633.5 183 L 632 181.5 L 632.5 173 Z " /><path fill="rgb(7,4,4)" stroke="rgb(7,4,4)" stroke-width="1" opacity="0.1411764705882353" d="M 793.5 173 L 797 174.5 L 796.5 176 L 789.5 176 L 787.5 176 L 780.5 177 L 776 179.5 L 775.5 181 L 775 179.5 Q 781.9 173.4 796 174.5 Q 792.7 174.6 793.5 173 Z " /><path fill="rgb(7,4,4)" stroke="rgb(7,4,4)" stroke-width="1" opacity="0.1411764705882353" d="M 842.5 173 L 843 175 L 855.5 176 L 860 178.5 L 861 181.5 L 860 181.5 L 857.5 178 L 841 176 L 842.5 173 Z " /><path fill="rgb(7,4,4)" stroke="rgb(7,4,4)" stroke-width="1" opacity="0.1411764705882353" d="M 852.5 173 L 857 173.5 L 852.5 174 L 852.5 173 Z " /><path fill="rgb(7,4,4)" stroke="rgb(7,4,4)" stroke-width="1" opacity="0.1411764705882353" d="M 898.5 173 L 899.5 175 L 898.5 173 Z " /><path fill="rgb(7,4,4)" stroke="rgb(7,4,4)" stroke-width="1" opacity="0.1411764705882353" d="M 381.5 174 L 382 176 Q 368.3 174.1 360.5 179 L 361.5 177 L 368.5 175 L 380.5 175 L 381.5 174 Z " /><path fill="rgb(7,4,4)" stroke="rgb(7,4,4)" stroke-width="1" opacity="0.1411764705882353" d="M 437.5 176 L 439.5 179 L 449 184.5 L 447.5 184 L 436 177.5 L 437.5 176 Z " /><path fill="rgb(7,4,4)" stroke="rgb(7,4,4)" stroke-width="1" opacity="0.1411764705882353" d="M 745.5 176 L 746 178.5 L 745 178.5 L 745.5 176 Z " /><path fill="rgb(7,4,4)" stroke="rgb(7,4,4)" stroke-width="1" opacity="0.1411764705882353" d="M 893.5 176 L 895.5 179 L 893.5 176 Z " /><path fill="rgb(7,4,4)" stroke="rgb(7,4,4)" stroke-width="1" opacity="0.1411764705882353" d="M 381.5 179 L 382 182 L 376.5 183 L 376.5 182 Q 380.3 182.8 381 180.5 L 381.5 179 Z " /><path fill="rgb(7,4,4)" stroke="rgb(7,4,4)" stroke-width="1" opacity="0.1411764705882353" d="M 429.5 179 L 432 179.5 L 427.5 182 L 429.5 179 Z " /><path fill="rgb(7,4,4)" stroke="rgb(7,4,4)" stroke-width="1" opacity="0.1411764705882353" d="M 485.5 179 L 486 181 L 488 181.5 L 486.5 182 L 485.5 179 Z " /><path fill="rgb(7,4,4)" stroke="rgb(7,4,4)" stroke-width="1" opacity="0.1411764705882353" d="M 721.5 179 Q 723.6 182.4 729 182.5 L 725.5 183 L 721.5 179 Z " /><path fill="rgb(7,4,4)" stroke="rgb(7,4,4)" stroke-width="1" opacity="0.1411764705882353" d="M 847.5 179 L 851 179.5 L 847.5 180 L 847.5 179 Z " /><path fill="rgb(7,4,4)" stroke="rgb(7,4,4)" stroke-width="1" opacity="0.1411764705882353" d="M 366 180 L 368 180.5 L 366 181.5 L 366 180 Z " /><path fill="rgb(7,4,4)" stroke="rgb(7,4,4)" stroke-width="1" opacity="0.1411764705882353" d="M 479.5 180 L 481 182.5 L 479 181.5 L 479.5 180 Z " /><path fill="rgb(7,4,4)" stroke="rgb(7,4,4)" stroke-width="1" opacity="0.1411764705882353" d="M 782.5 180 L 781.5 182 L 782.5 180 Z " /><path fill="rgb(7,4,4)" stroke="rgb(7,4,4)" stroke-width="1" opacity="0.1411764705882353" d="M 853.5 180 Q 856.5 181.5 853.5 183 L 851 182.5 L 854 181.5 L 853.5 180 Z " /><path fill="rgb(7,4,4)" stroke="rgb(7,4,4)" stroke-width="1" opacity="0.1411764705882353" d="M 502.5 181 L 505 182.5 L 501.5 183 L 502.5 181 Z " /><path fill="rgb(7,4,4)" stroke="rgb(7,4,4)" stroke-width="1" opacity="0.1411764705882353" d="M 506.5 181 Q 508.8 180.3 508 182.5 L 509 185 L 503 187 L 503.5 185 L 505.5 185 Q 508.1 185.8 507 182.5 L 506.5 181 Z " /><path fill="rgb(7,4,4)" stroke="rgb(7,4,4)" stroke-width="1" opacity="0.1411764705882353" d="M 741.5 181 L 742.5 183 L 738 182.5 L 741.5 181 Z " /><path fill="rgb(7,4,4)" stroke="rgb(7,4,4)" stroke-width="1" opacity="0.1411764705882353" d="M 840.5 181 L 841.5 183 Q 838.7 183.7 840.5 181 Z " /><path fill="rgb(7,4,4)" stroke="rgb(7,4,4)" stroke-width="1" opacity="0.1411764705882353" d="M 897.5 181 Q 899.8 180.3 899 182.5 L 900.5 185 L 897.5 181 Z " /><path fill="rgb(7,4,4)" stroke="rgb(7,4,4)" stroke-width="1" opacity="0.1411764705882353" d="M 489.5 182 L 492 182.5 L 489.5 183 L 489.5 182 Z " /><path fill="rgb(7,4,4)" stroke="rgb(7,4,4)" stroke-width="1" opacity="0.1411764705882353" d="M 643.5 182 L 644 186 Q 639.9 187.9 631.5 187 L 628 184.5 L 629.5 185 L 640.5 186 L 643 185 L 643.5 182 Z " /><path fill="rgb(7,4,4)" stroke="rgb(7,4,4)" stroke-width="1" opacity="0.1411764705882353" d="M 744.5 182 L 745 184.5 L 744 184.5 L 744.5 182 Z " /><path fill="rgb(7,4,4)" stroke="rgb(7,4,4)" stroke-width="1" opacity="0.1411764705882353" d="M 792.5 182 L 795 182.5 L 792.5 183 L 792.5 182 Z " /><path fill="rgb(7,4,4)" stroke="rgb(7,4,4)" stroke-width="1" opacity="0.1411764705882353" d="M 834.5 182 L 835 184.5 L 834 184.5 L 834.5 182 Z " /><path fill="rgb(7,4,4)" stroke="rgb(7,4,4)" stroke-width="1" opacity="0.1411764705882353" d="M 187.5 183 L 189 183.5 L 182.5 189 L 179 190 L 179 192 L 176 192 Q 177.3 195 173.5 194 L 169.5 197 L 157.5 201 L 157.5 200 Q 175.9 194.9 187.5 183 Z " /><path fill="rgb(7,4,4)" stroke="rgb(7,4,4)" stroke-width="1" opacity="0.1411764705882353" d="M 360.5 183 L 361.5 185 L 360.5 183 Z " /><path fill="rgb(7,4,4)" stroke="rgb(7,4,4)" stroke-width="1" opacity="0.1411764705882353" d="M 482.5 183 L 483.5 185 L 482.5 183 Z " /><path fill="rgb(7,4,4)" stroke="rgb(7,4,4)" stroke-width="1" opacity="0.1411764705882353" d="M 909.5 183 L 907.5 186 L 909.5 183 Z " /><path fill="rgb(7,4,4)" stroke="rgb(7,4,4)" stroke-width="1" opacity="0.1411764705882353" d="M 440.5 184 Q 442.8 186.8 448 186.5 L 443.5 187 L 440.5 184 Z " /><path fill="rgb(7,4,4)" stroke="rgb(7,4,4)" stroke-width="1" opacity="0.1411764705882353" d="M 856.5 184 L 858 184.5 L 854.5 186 L 854.5 185 L 856.5 184 Z " /><path fill="rgb(7,4,4)" stroke="rgb(7,4,4)" stroke-width="1" opacity="0.1411764705882353" d="M 321.5 185 Q 322.8 187.3 327.5 186 L 329 185.5 Q 327.8 188.3 322.5 187 L 321.5 185 Z " /><path fill="rgb(7,4,4)" stroke="rgb(7,4,4)" stroke-width="1" opacity="0.1411764705882353" d="M 375.5 185 L 376.5 187 L 365 186.5 L 374.5 186 L 375.5 185 Z " /><path fill="rgb(7,4,4)" stroke="rgb(7,4,4)" stroke-width="1" opacity="0.1411764705882353" d="M 450.5 185 L 452 185.5 L 449.5 187 L 450.5 185 Z " /><path fill="rgb(7,4,4)" stroke="rgb(7,4,4)" stroke-width="1" opacity="0.1411764705882353" d="M 486.5 185 Q 489.8 183.9 489 186.5 L 487.5 186 L 486.5 185 Z " /><path fill="rgb(7,4,4)" stroke="rgb(7,4,4)" stroke-width="1" opacity="0.1411764705882353" d="M 723.5 185 L 727 185.5 L 723.5 186 L 723.5 185 Z " /><path fill="rgb(7,4,4)" stroke="rgb(7,4,4)" stroke-width="1" opacity="0.1411764705882353" d="M 738.5 185 L 743 185.5 Q 737.8 188.3 728.5 187 L 728.5 186 L 737.5 186 L 738.5 185 Z " /><path fill="rgb(7,4,4)" stroke="rgb(7,4,4)" stroke-width="1" opacity="0.1411764705882353" d="M 836.5 185 L 851.5 186 L 853 185.5 L 852.5 187 L 841.5 187 L 836.5 186 L 836.5 185 Z " /><path fill="rgb(7,4,4)" stroke="rgb(7,4,4)" stroke-width="1" opacity="0.1411764705882353" d="M 302.5 186 L 308 186.5 L 302.5 187 L 302.5 186 Z " /><path fill="rgb(7,4,4)" stroke="rgb(7,4,4)" stroke-width="1" opacity="0.1411764705882353" d="M 490.5 186 L 502 186.5 L 490.5 187 L 490.5 186 Z " /><path fill="rgb(7,4,4)" stroke="rgb(7,4,4)" stroke-width="1" opacity="0.1411764705882353" d="M 900.5 186 L 897 190.5 Q 896.1 193.9 901.5 192 L 907 187.5 L 902.5 193 Q 896.5 194.5 895 191.5 L 900.5 186 Z " /><path fill="rgb(7,4,4)" stroke="rgb(7,4,4)" stroke-width="1" opacity="0.1411764705882353" d="M 158.5 188 L 156.5 191 L 155 190.5 L 158.5 188 Z " /><path fill="rgb(7,4,4)" stroke="rgb(7,4,4)" stroke-width="1" opacity="0.1411764705882353" d="M 151.5 192 L 150.5 194 L 151.5 192 Z " /><path fill="rgb(7,4,4)" stroke="rgb(7,4,4)" stroke-width="1" opacity="0.1411764705882353" d="M 148.5 194 L 147.5 196 Q 138.7 201.4 126 202 L 125.5 204 L 124.5 202 L 123.5 204 Q 120.5 202.5 123.5 201 L 130.5 201 L 148.5 194 Z " /><path fill="rgb(7,4,4)" stroke="rgb(7,4,4)" stroke-width="1" opacity="0.1411764705882353" d="M 144.5 203 L 148 203.5 L 144.5 204 L 144.5 203 Z " /><path fill="rgb(7,4,4)" stroke="rgb(7,4,4)" stroke-width="1" opacity="0.1411764705882353" d="M 132.5 204 L 138 204.5 L 132.5 205 L 132.5 204 Z " /><path fill="rgb(0,0,0)" stroke="rgb(0,0,0)" stroke-width="1" opacity="0" d="M 0 0 L 959.5 0 L 960 0.5 L 960 250 L 0.5 250 L 0 249.5 L 0 0 Z M 163 34 L 159 36 Q 147 47 138 61 L 136 65 L 128 98 L 117 126 Q 105 151 89 170 L 88 170 L 71 186 L 58 194 L 37 201 L 34 200 Q 29 199 31 204 L 38 206 L 41 205 L 43 206 L 56 205 L 69 202 L 79 198 L 93 189 Q 92 185 96 187 L 96 185 L 111 173 L 128 150 L 147 111 L 147 108 L 157 81 L 157 77 L 159 74 L 167 38 L 163 34 Z M 207 34 L 205 35 L 203 38 L 197 43 Q 198 45 196 44 L 191 50 Q 192 52 189 51 L 181 64 L 179 76 L 173 95 L 173 99 L 171 101 L 168 112 L 158 135 L 148 152 L 128 176 Q 125 175 126 178 L 122 181 Q 119 180 120 183 L 106 192 L 104 192 L 103 194 L 99 195 Q 97 198 96 196 L 83 201 L 78 201 L 76 203 L 81 205 Q 85 204 87 206 Q 88 204 94 205 L 96 205 L 110 203 Q 113 200 120 199 L 130 194 L 146 182 L 164 163 L 164 161 L 176 144 L 187 122 L 201 84 L 205 70 L 205 66 L 208 59 L 208 54 L 208 52 L 212 40 L 211 37 Q 210 34 207 34 Z M 253 35 L 251 36 Q 237 48 228 64 L 224 83 L 216 109 L 202 139 L 192 156 L 169 181 Q 166 180 167 183 L 146 196 L 131 201 L 124 201 L 122 203 L 124 204 L 132 204 L 133 205 L 153 203 L 170 197 L 174 194 Q 177 195 176 192 L 179 192 L 179 190 Q 185 189 188 184 L 191 182 Q 215 159 230 127 L 248 78 L 256 45 L 256 35 L 253 35 Z M 301 70 L 292 72 L 286 75 Q 279 79 277 88 L 277 140 L 278 142 L 281 144 L 292 144 L 295 141 L 295 91 L 296 89 L 302 85 L 315 85 L 316 84 L 356 85 L 360 87 L 361 89 L 361 140 L 362 142 L 365 144 L 376 144 L 379 140 L 379 88 L 376 81 L 368 73 L 356 70 L 301 70 Z M 424 70 L 407 76 Q 399 80 397 89 L 397 126 L 400 132 Q 406 140 419 143 L 424 144 L 451 144 L 454 140 L 453 132 L 451 129 L 435 129 L 433 129 L 421 126 Q 416 123 415 117 L 496 116 L 498 115 L 500 111 L 500 89 L 497 81 L 490 74 L 479 70 L 424 70 Z M 519 70 L 516 74 L 516 126 L 519 133 L 527 139 Q 530 138 529 141 L 543 144 L 594 144 Q 607 142 616 134 L 620 127 L 620 74 L 619 72 L 618 70 L 606 70 L 602 76 L 602 124 L 600 126 L 587 129 L 550 129 L 538 126 L 534 123 L 534 74 L 532 72 L 532 70 L 519 70 Z M 664 70 L 651 74 L 645 78 L 640 87 L 639 92 L 639 140 L 643 144 L 654 144 L 656 143 L 657 142 L 657 93 L 658 90 L 665 85 L 686 84 L 689 81 Q 690 74 688 71 L 686 70 L 664 70 Z M 729 70 L 718 73 L 710 78 Q 704 82 702 90 L 702 126 L 705 132 Q 713 142 729 144 L 779 144 L 790 141 L 795 138 Q 802 133 804 124 L 804 91 L 801 82 L 795 75 L 781 70 L 729 70 Z M 846 70 L 834 73 L 829 76 L 822 87 L 822 140 L 823 142 L 826 144 L 837 144 L 839 142 L 839 91 L 840 89 L 846 85 L 860 85 L 861 84 L 886 84 L 887 85 Q 897 83 903 86 L 905 89 L 905 139 L 907 143 Q 911 145 921 144 L 924 139 L 924 89 L 921 81 L 912 73 L 901 70 L 846 70 Z M 421 162 L 421 186 Q 422 188 427 187 L 430 180 L 433 180 L 444 187 L 448 187 L 450 187 L 452 186 L 440 179 L 438 176 L 449 171 Q 451 172 450 169 L 442 169 L 430 176 L 428 176 L 428 162 L 421 162 Z M 585 163 L 585 167 L 592 167 L 592 163 L 585 163 Z M 626 164 Q 628 171 622 169 L 622 173 L 626 174 L 626 184 L 632 187 L 641 187 L 642 186 Q 646 187 644 182 L 640 183 Q 634 184 633 181 L 633 173 L 644 173 L 644 169 L 634 169 L 633 164 L 626 164 Z M 282 168 L 280 170 L 280 186 Q 281 188 286 187 L 287 186 L 287 176 L 289 174 L 292 175 L 292 173 L 300 174 L 301 176 L 301 186 L 303 187 L 308 187 L 308 176 L 314 173 L 321 174 L 322 176 L 322 185 Q 320 186 323 187 Q 328 188 329 186 L 329 174 L 328 172 L 325 169 L 311 169 L 307 171 L 304 169 L 291 169 L 290 170 L 282 168 Z M 917 168 L 915 169 L 909 176 L 905 180 L 902 178 Q 903 175 900 176 L 896 169 L 888 170 L 897 182 L 901 186 L 895 192 Q 897 195 903 193 L 921 169 L 917 168 Z M 362 169 L 362 173 L 378 173 L 381 175 Q 369 174 362 177 L 359 181 L 360 184 L 366 187 Q 374 188 380 186 Q 381 184 383 187 L 389 186 L 389 174 Q 386 174 387 171 L 383 169 L 362 169 Z M 488 169 L 483 171 L 478 177 L 479 182 Q 482 185 488 186 L 490 186 L 491 187 L 502 187 L 504 187 L 509 185 L 508 181 L 504 182 Q 502 179 501 183 Q 491 184 486 181 L 487 179 L 509 179 Q 510 179 509 175 L 502 169 L 488 169 Z M 585 169 L 585 186 L 587 187 Q 591 188 592 186 L 592 169 L 585 169 Z M 725 169 Q 718 171 715 176 L 716 182 L 724 186 L 729 187 Q 738 188 744 185 Q 747 186 745 182 L 742 181 L 738 183 Q 727 184 722 180 L 746 179 L 745 174 L 739 169 L 725 169 Z M 779 169 L 777 173 L 793 173 L 796 175 Q 785 174 778 177 Q 774 179 775 184 L 783 187 Q 791 188 796 185 L 799 187 L 803 186 L 804 186 L 804 174 L 798 169 L 779 169 Z M 841 169 L 838 170 Q 834 171 834 176 L 841 179 L 853 180 L 854 182 Q 850 184 843 183 Q 841 179 840 182 Q 832 180 834 185 L 842 187 Q 854 189 860 184 L 861 182 L 860 179 L 856 176 Q 849 178 848 175 Q 842 177 843 173 L 859 174 L 860 170 L 857 169 L 841 169 Z " /><path fill="rgb(0,0,0)" stroke="rgb(0,0,0)" stroke-width="1" opacity="0" d="M 438.5 84 L 471.5 85 L 479.5 88 L 482 90.5 L 483 101 L 415.5 101 L 415 100.5 L 415 91.5 L 417.5 88 L 426.5 85 L 437.5 85 L 438.5 84 Z " /><path fill="rgb(0,0,0)" stroke="rgb(0,0,0)" stroke-width="1" opacity="0" d="M 741.5 84 L 766.5 84 L 767.5 85 L 776.5 85 L 784 88 L 785 90.5 L 785 122.5 L 779.5 127 L 770.5 129 L 734.5 129 L 725.5 127 L 720 122.5 L 719 120.5 L 719 93.5 L 724.5 87 L 730.5 85 L 740.5 85 L 741.5 84 Z " /><path fill="rgb(0,0,0)" stroke="rgb(0,0,0)" stroke-width="1" opacity="0" d="M 491.5 173 Q 497.9 172.1 501 174.5 L 487.5 175 L 487.5 174 L 491.5 173 Z " /><path fill="rgb(0,0,0)" stroke="rgb(0,0,0)" stroke-width="1" opacity="0" d="M 727.5 173 Q 734.5 171.9 738 174.5 L 724.5 175 L 724.5 174 L 727.5 173 Z " /><path fill="rgb(0,0,0)" stroke="rgb(0,0,0)" stroke-width="1" opacity="0" d="M 374.5 179 Q 381.5 177.5 381 180.5 Q 377.8 183.8 370.5 183 L 367 181.5 L 368.5 180 Q 373.2 181.3 374.5 179 Z " /><path fill="rgb(0,0,0)" stroke="rgb(0,0,0)" stroke-width="1" opacity="0" d="M 789.5 179 L 797 179 L 797 182 L 784.5 183 L 782 181.5 L 783.5 180 Q 788.3 181.3 789.5 179 Z " /><path fill="rgb(41,4,4)" stroke="rgb(41,4,4)" stroke-width="1" opacity="0.9764705882352941" d="M 208.5 36 L 209 42.5 L 197 89.5 L 184 123.5 L 167 154.5 L 145.5 180 Q 132.8 191.8 115.5 199 L 101.5 203 L 82 204 Q 80.7 200.3 86.5 202 Q 100.8 198.3 111.5 191 Q 125.8 181.3 137 168.5 Q 153.5 150 164 125.5 L 175 97.5 L 184 62.5 Q 192.6 48.6 204.5 38 L 208.5 36 Z " /><path fill="rgb(41,4,4)" stroke="rgb(41,4,4)" stroke-width="1" opacity="0.9764705882352941" d="M 253.5 36 Q 255.8 35.3 255 37.5 L 256 40.5 L 248 73.5 L 240 99.5 L 226 132.5 Q 211.7 162.2 188.5 183 Q 177 192.5 162.5 199 L 143.5 204 L 126 204 Q 124.7 200.3 130.5 202 Q 161.5 193 180 171.5 Q 198.8 150.3 211 122.5 L 221 95.5 L 230 61.5 L 249.5 38 L 253.5 36 Z " /><path fill="rgb(41,4,4)" stroke="rgb(41,4,4)" stroke-width="1" opacity="0.9764705882352941" d="M 161.5 37 L 164 37 L 164 43.5 L 152 89.5 L 140 121.5 L 122 154.5 L 101 180 L 87.5 190 L 72.5 198 L 55.5 203 L 41.5 204 L 38 202.5 Q 54.2 199.7 65.5 192 L 83 179 L 83 177 L 85 177 Q 83.9 174.3 86.5 175 L 102 156.5 L 117 130.5 L 131 95.5 L 139 62.5 L 159.5 38 L 161.5 37 Z " /><path fill="rgb(41,4,4)" stroke="rgb(41,4,4)" stroke-width="1" opacity="0.9764705882352941" d="M 306.5 70 L 349.5 70 Q 351.3 72.8 357.5 71 Q 368.8 73.2 375 80.5 L 378 86.5 L 378 139.5 L 375.5 143 L 364.5 143 L 362 140.5 L 362 90.5 L 358.5 86 L 352.5 84 L 303.5 84 L 295 87 L 294 89.5 L 294 140.5 L 291.5 143 Q 282.6 144.3 279 142 L 278 139.5 L 278 87.5 Q 279.9 79.8 285.5 76 L 294.5 72 L 305.5 71 L 306.5 70 Z " /><path fill="rgb(41,4,4)" stroke="rgb(41,4,4)" stroke-width="1" opacity="0.9764705882352941" d="M 428.5 70 L 472.5 70 L 484.5 73 L 495 79 L 499 86.5 L 499 111.5 L 498 114 L 495.5 115 L 414 115 Q 414.4 123.4 420.5 127 L 429.5 130 L 449.5 130 L 453 132.5 Q 455 141 450.5 143 L 424.5 143 Q 423.3 140.8 418.5 142 L 406.5 137 L 402 132.5 L 398 124.5 L 398 88.5 Q 400.3 81.8 405.5 78 L 417.5 72 L 428.5 70 Z M 429 84 L 417 88 L 414 91 L 414 102 L 483 102 L 483 102 L 483 91 L 477 86 L 469 84 L 429 84 Z " /><path fill="rgb(41,4,4)" stroke="rgb(41,4,4)" stroke-width="1" opacity="0.9764705882352941" d="M 521.5 70 Q 528.5 69.3 532 71 L 533 73.5 L 533 122.5 L 536.5 127 L 548.5 130 L 588.5 130 L 597.5 128 L 603 123.5 L 603 73.5 L 605.5 71 Q 608.7 68.7 615.5 70 L 620 76.5 L 620 80.5 L 620 111.5 Q 617.3 113.3 619 119.5 L 620 121.5 L 618 129.5 L 610.5 137 L 601.5 141 L 591.5 143 L 543.5 143 L 530.5 140 L 520 132.5 L 517 125.5 L 517 74.5 L 519.5 71 L 521.5 70 Z " /><path fill="rgb(41,4,4)" stroke="rgb(41,4,4)" stroke-width="1" opacity="0.9764705882352941" d="M 667.5 70 L 669.5 70 L 683.5 70 L 688 73.5 Q 689.8 82.3 684.5 84 L 666.5 84 Q 659.9 84.9 657 89.5 L 656 91.5 L 656 140.5 L 653.5 143 Q 644.6 144.3 641 142 L 640 138.5 L 640 92.5 L 643 82.5 L 649.5 76 L 655.5 73 L 667.5 70 Z " /><path fill="rgb(41,4,4)" stroke="rgb(41,4,4)" stroke-width="1" opacity="0.9764705882352941" d="M 734.5 70 L 774.5 70 Q 776 72.5 781.5 71 Q 794 73 800 81.5 L 803 91.5 L 802 92.5 L 802 126.5 Q 799.8 133.3 794.5 137 L 786.5 141 L 777.5 143 L 729.5 143 L 717.5 140 L 706 131.5 L 703 125.5 L 703 88.5 Q 706 81 712.5 77 L 722.5 72 L 733.5 71 L 734.5 70 Z M 733 84 L 724 87 L 719 93 L 719 123 L 726 128 L 735 130 L 772 130 Q 773 128 778 129 L 785 125 L 787 120 L 787 95 L 786 90 L 782 86 L 774 84 L 733 84 Z " /><path fill="rgb(41,4,4)" stroke="rgb(41,4,4)" stroke-width="1" opacity="0.9764705882352941" d="M 851.5 70 L 893.5 70 Q 895.3 72.8 901.5 71 Q 912.8 72.8 919 79.5 L 922 84.5 L 922 140.5 L 919.5 143 L 909.5 143 L 907 140.5 L 906 135.5 L 906 92.5 L 906 90.5 Q 906.5 86.5 903.5 86 L 897.5 84 L 848.5 84 L 843.5 85 L 840 87.5 L 839 89.5 L 839 139.5 L 838 142 Q 834.4 144.3 825.5 143 L 823 140.5 L 823 85.5 L 830.5 76 L 839.5 72 L 850.5 71 L 851.5 70 Z " /><path fill="rgb(41,4,4)" stroke="rgb(41,4,4)" stroke-width="1" opacity="0.9764705882352941" d="M 423.5 162 L 427 162.5 L 427 177.5 L 428.5 178 L 442.5 170 L 446.5 170 L 446.5 171 L 435 177.5 L 450 185.5 L 443.5 186 L 429.5 179 Q 425.8 180.5 427 186 L 422 185.5 L 422 163.5 L 423.5 162 Z " /><path fill="rgb(41,4,4)" stroke="rgb(41,4,4)" stroke-width="1" opacity="0.9764705882352941" d="M 586 163 L 591 163 L 591 166 L 586 166 L 586 163 Z " /><path fill="rgb(41,4,4)" stroke="rgb(41,4,4)" stroke-width="1" opacity="0.9764705882352941" d="M 627.5 164 Q 631.3 163.3 632 165.5 L 631 167.5 L 632 170 L 642.5 170 L 643 172 Q 634.7 170.8 631 173 L 632 176.5 L 632 180.5 L 633.5 183 L 641.5 183 L 642.5 182 L 643 185 Q 640 187 632.5 186 L 627 184 L 626 179.5 L 626 177.5 L 627 175.5 L 625.5 172 Q 621.8 173 623 170 Q 627.1 171.7 626 167.5 L 627.5 164 Z " /><path fill="rgb(41,4,4)" stroke="rgb(41,4,4)" stroke-width="1" opacity="0.9764705882352941" d="M 281 170 L 289.5 171 L 290.5 170 L 302.5 170 L 307.5 172 Q 312.5 168 323.5 170 L 328 173.5 L 328 186 L 323 186 L 323 174.5 L 321.5 173 L 313.5 172 L 307 174 L 307 186 L 302 186 L 302 174.5 L 300.5 173 L 292.5 172 L 286 174 L 286 186 L 281 186 L 281 170 Z " /><path fill="rgb(41,4,4)" stroke="rgb(41,4,4)" stroke-width="1" opacity="0.9764705882352941" d="M 364.5 170 L 381.5 170 L 387 173.5 L 387 186 L 382 186 Q 383.1 183.3 380.5 184 Q 375.5 187 366.5 186 L 360 182.5 Q 359.5 178.5 362.5 178 L 382 176 L 380.5 173 L 363 171.5 L 364.5 170 Z M 369 179 L 365 182 L 368 183 L 380 183 L 382 182 L 382 179 L 369 179 Z " /><path fill="rgb(41,4,4)" stroke="rgb(41,4,4)" stroke-width="1" opacity="0.9764705882352941" d="M 487.5 170 L 501.5 170 L 507 173.5 L 508 179 L 484 179.5 L 489.5 183 L 505.5 183 L 507 182.5 Q 508.4 187.1 502.5 185 L 501.5 186 L 490.5 186 L 485.5 185 L 480 181.5 L 479 176.5 L 481.5 173 L 487.5 170 Z M 491 172 L 487 174 Q 484 173 485 176 L 503 176 L 503 175 Q 499 171 491 172 Z " /><path fill="rgb(41,4,4)" stroke="rgb(41,4,4)" stroke-width="1" opacity="0.9764705882352941" d="M 586 170 L 591 170.5 L 591 186 L 586 185.5 L 586 170 Z " /><path fill="rgb(41,4,4)" stroke="rgb(41,4,4)" stroke-width="1" opacity="0.9764705882352941" d="M 724.5 170 L 738.5 170 L 744 173.5 L 745 179 L 721 179.5 L 725.5 183 L 742.5 183 L 744 182.5 L 744 185 L 738.5 185 L 737.5 186 L 727.5 186 L 722.5 185 L 717 181.5 L 716 176.5 L 719.5 172 L 724.5 170 Z M 728 172 L 724 173 L 722 176 L 740 176 L 740 174 Q 736 171 728 172 Z " /><path fill="rgb(41,4,4)" stroke="rgb(41,4,4)" stroke-width="1" opacity="0.9764705882352941" d="M 779.5 170 L 796.5 170 L 802 173.5 Q 804.5 177 803 184.5 Q 802.3 186.8 798.5 186 L 795.5 184 Q 790.5 187 781.5 186 L 776 184 L 775 181.5 L 777.5 178 L 785.5 176 L 788.5 177 L 789.5 176 L 797 176 L 795.5 173 L 778 171.5 L 779.5 170 Z M 785 179 L 781 180 L 783 183 L 795 183 L 798 181 L 797 179 L 785 179 Z " /><path fill="rgb(41,4,4)" stroke="rgb(41,4,4)" stroke-width="1" opacity="0.9764705882352941" d="M 841.5 170 L 856.5 170 L 859 171 Q 860.4 175 853.5 173 L 852.5 172 L 843.5 172 L 840 174.5 L 845.5 177 L 857.5 178 L 860 180.5 Q 861.1 183.8 858.5 183 Q 853 187.5 841.5 186 L 835 185 Q 833.5 181.3 836.5 182 L 837.5 183 L 853.5 183 L 855 180 Q 851.2 178.2 843.5 179 L 836 177 L 835 174.5 L 836 172 L 841.5 170 Z " /><path fill="rgb(41,4,4)" stroke="rgb(41,4,4)" stroke-width="1" opacity="0.9764705882352941" d="M 890.5 170 Q 897 169 898 173.5 L 903 181 Q 906.8 181.8 908 178.5 L 914.5 170 L 919 170.5 L 901.5 192 L 897 191.5 L 902 185.5 L 890.5 170 Z " /></svg>